Coordinates
version=1
nRows=11
nColumns=36
inDegrees=yes

Units are S.I. units (second, meters, Newtons, ...)
If the header above contains a line with 'inDegrees', this indicates whether rotational values are in degrees (yes) or radians (no).

endheader
time	pelvis_tilt	pelvis_list	pelvis_rotation	pelvis_tx	pelvis_ty	pelvis_tz	hip_flexion_r	hip_adduction_r	hip_rotation_r	knee_angle_r	knee_angle_r_beta	ankle_angle_r	subtalar_angle_r	mtp_angle_r	hip_flexion_l	hip_adduction_l	hip_rotation_l	knee_angle_l	knee_angle_l_beta	ankle_angle_l	subtalar_angle_l	mtp_angle_l	lumbar_extension	lumbar_bending	lumbar_rotation	arm_flex_r	arm_add_r	arm_rot_r	elbow_flex_r	pro_sup_r	arm_flex_l	arm_add_l	arm_rot_l	elbow_flex_l	pro_sup_l
      9.76000000	    -17.57293103	     -1.95888890	     -0.65071116	     -0.21998770	      0.92879762	     -0.70825731	     32.20473924	    -10.38224521	     -7.48695689	     20.90430854	      0.36484901	      8.84062839	      7.41471027	     -7.49999987	     33.39790211	    -14.16312953	     -8.42978240	     21.98965439	      0.38379187	      7.62701948	      7.88016792	     -7.49999987	    -10.94162490	      1.41894508	      1.89504940	     36.67448195	    -27.89629152	      8.35714382	    114.21342562	    101.50177017	     36.82924777	    -24.03870800	      9.03845292	    113.03217900	    105.78355143
      9.77000000	    -17.15157286	     -2.01556698	     -0.72031687	     -0.21730482	      0.93173329	     -0.70806555	     30.86430493	    -10.08063546	     -7.33240740	     19.49756338	      0.34029668	      8.15343982	      7.20082989	     -7.49999987	     32.11617236	    -14.14413581	     -8.73042599	     20.80681983	      0.36314751	      7.16947118	      8.00811241	     -7.49999987	    -10.65529147	      1.38808382	      1.88232813	     35.62430671	    -27.68554383	      8.34909854	    114.15888717	    101.63006896	     35.62999288	    -24.16373516	      8.88940718	    113.15511003	    105.82844747
      9.78000000	    -16.96694868	     -2.07857883	     -0.76219593	     -0.21476375	      0.93406707	     -0.70791712	     29.83620909	     -9.81190096	     -7.23222379	     18.21881325	      0.31797828	      7.86998699	      7.25505744	     -7.49999987	     31.18954298	    -14.10567220	     -8.90379862	     19.78269524	      0.34527317	      6.96714774	      8.13748030	     -7.49999987	    -10.05984683	      1.36513590	      1.88749015	     34.47455022	    -27.59904452	      8.37951102	    114.10350612	    101.67416734	     34.45761140	    -24.28746363	      8.89188198	    113.16267785	    105.84642996
      9.79000000	    -16.47151126	     -2.15564186	     -0.79237470	     -0.21219162	      0.93674904	     -0.70789154	     28.41659730	     -9.51335740	     -6.98007461	     16.81225749	      0.29342925	      7.03796170	      7.00984973	     -7.49999987	     29.89649613	    -14.06697957	     -9.08244853	     18.69051548	      0.32621103	      6.41131604	      8.32876222	     -7.49999987	     -9.91651731	      1.37583729	      1.89659354	     33.46082096	    -27.46719009	      8.23907175	    114.08796255	    101.77410416	     33.42755438	    -24.33146634	      8.74625550	    113.26123575	    105.87938878
      9.80000000	    -16.17330181	     -2.24424315	     -0.77765780	     -0.20976459	      0.93885251	     -0.70791899	     27.26302364	     -9.23019450	     -6.73307677	     15.53705828	      0.27117282	      6.40581333	      6.56795180	     -7.49999987	     28.88812272	    -14.01636773	     -9.17749814	     17.67653770	      0.30851378	      6.07287481	      8.40364434	     -7.49999987	     -9.51442562	      1.40605126	      1.86858737	     32.40576304	    -27.37773857	      8.15294195	    114.06049254	    101.91250487	     32.37800578	    -24.42285554	      8.72086412	    113.32467397	    105.91960889
      9.81000000	    -15.89820708	     -2.33046490	     -0.77343186	     -0.20743820	      0.94077178	     -0.70791540	     26.13876428	     -8.93774063	     -6.32877761	     14.25890173	      0.24886478	      5.75755190	      5.99415526	     -7.49999987	     27.90874233	    -13.98323508	     -9.30631926	     16.66940507	      0.29093600	      5.79057834	      8.60067668	     -7.49999987	     -9.10306506	      1.43055519	      1.82214233	     31.38949598	    -27.22199312	      8.03051110	    113.98139517	    102.42653804	     31.33018201	    -24.52008941	      8.60533393	    113.37361417	    106.23468431
      9.82000000	    -15.56601624	     -2.39067596	     -0.74112137	     -0.20515422	      0.94263169	     -0.70791708	     24.98872766	     -8.71290774	     -6.08367380	     13.04009753	      0.22759264	      5.22269473	      5.73505914	     -7.49999987	     26.87099934	    -13.89688338	     -9.33755135	     15.63736299	      0.27292347	      5.43051838	      8.50360317	     -7.49999987	     -8.77212995	      1.42793947	      1.77397345	     30.35910421	    -27.06926152	      7.92123853	    113.94394038	    102.82506015	     30.36707696	    -24.61773279	      8.52943333	    113.40386991	    106.25647842
      9.83000000	    -15.24534412	     -2.43901244	     -0.76453359	     -0.20288519	      0.94431023	     -0.70780260	     23.88949618	     -8.49024230	     -5.79850950	     11.86610531	      0.20710261	      4.68799896	      5.46736804	     -7.49999987	     25.86175651	    -13.86399572	     -9.58414749	     14.70870816	      0.25671539	      5.20674942	      8.86764659	     -7.49999987	     -8.42289989	      1.38083535	      1.81347921	     29.28586218	    -26.93006875	      7.75152400	    113.90380055	    102.99366344	     29.54281038	    -24.66759724	      8.55669660	    113.36389627	    106.25073706
      9.84000000	    -14.92110497	     -2.50823165	     -0.80744006	     -0.20062501	      0.94583737	     -0.70762016	     22.80345477	     -8.24616507	     -5.46562385	     10.72603293	      0.18720459	      4.26271863	      5.26050569	     -7.49999987	     24.89849518	    -13.91690681	    -10.14298915	     13.88585748	      0.24235393	      5.31615579	      9.76532930	     -7.49999987	     -8.10925375	      1.36353666	      1.87932225	     28.21684334	    -26.79265300	      7.66401159	    114.10218896	    100.90537652	     28.68030081	    -24.73695803	      8.66637060	    113.50794319	    104.62490856
      9.85000000	    -14.63761639	     -2.56619062	     -0.74209403	     -0.19852600	      0.94717133	     -0.70777763	     21.79206387	     -8.09728288	     -5.33471576	      9.67292487	      0.16882439	      3.79495237	      5.06105230	     -7.49999987	     23.98889546	    -13.78178895	     -9.94148731	     12.94678546	      0.22596403	      4.76582408	      9.23154023	     -7.49999987	     -7.78165613	      1.38059464	      1.79740329	     27.25028115	    -26.64752883	      7.42211028	    113.97187930	    102.74285375	     27.80231118	    -24.78308058	      8.45137397	    113.29585754	    106.59941972
      9.86000000	    -14.35897841	     -2.64056251	     -0.71029400	     -0.19645560	      0.94833037	     -0.70784963	     20.81350516	     -7.92367026	     -5.17852545	      8.66102894	      0.15116347	      3.41508777	      4.95330665	     -7.49999987	     23.13654350	    -13.74614818	    -10.04140659	     12.13989999	      0.21188123	      4.58445800	      9.37800497	     -7.49999987	     -7.46214164	      1.41476566	      1.73282664	     26.30043883	    -26.48855035	      7.24827137	    113.97841075	    102.98013828	     26.88863782	    -24.79264624	      8.28124948	    113.32816972	    106.63204280
